<svg xmlns:svg="http://www.w3.org/2000/svg" xmlns="http://www.w3.org/2000/svg" viewBox="0 0 325.2 49.1" shape-rendering="auto" xml:space="preserve" height="42" width="275" version="1.1"><g transform="matrix(1.3333333,0,0,-1.3333333,0,49.106667)"><g transform="scale(0.1)"><path d="m1480.2 243.6v0c3.9 8.5 5.8 8.9 15 8.9v8.4c-9.5-0.6-16.7-1-22.3-1-5.6 0-4.2 0.4-13.7 1v-8.4c7.8 0 9.6-1.4 9.6-5.1l-28.3-49.6-26.3 48.1c0.9 6.8-1.5 7.6 10.7 7.2v8.3c-12.8-0.6-22.5-1-30.1-1-7.6 0-15.8 0.4-28.6 1v-8.2c11.9 0.3 14.2-2.8 17.7-7.3 0.3-0.5 0.5-1.1 0.6-1.8 12.8-20.6 36.3-63.1 36.3-63.1v-30.1c-0.2-14-1-15.5-16.5-15.2v-8.2c12.8 0.6 22.7 1 30.3 1 7.6 0 17.3-0.4 30.1-1v8.4c-15.7-0.6-16.5 1-16.5 15 0 0-0.2 34.4 0 36.4l31.9 56.1 0.3 0.2v0M1561 190.8c-14.2-27.9-19.8-59.8-1.8-67.7 24.5-10.7 79.7 19.7 117.5 94.9 0.1 0.1 27.2 3.7 46.7 0.9 1.4-0.2-17.2-47.7-29.8-76.5-10-22.9-45.5-64.8-91.2-43.8-9.4 4.3-8.7-1.6 5.8-6.6 19.8-6.8 56.2-12.3 94.3 34.4 18.4 22.5 45.5 93.1 50.8 92.6 49-4.5 82.6 23.3 79 49.4 0 0-11-37.6-71-29.3-0.4 0.1 13.3 66.9 39.4 66.9 21.1 0 11-21.5 7.3-26.1-3.7-4.6-1.4-5 3.2-1.8 4.6 3.2 24.3 27 15.6 35.3-10.3 9.8-54.5 13.3-93.9-73.3-0.4-0.9-48.1 1-57-4.6-0.4-0.2 0.6 17.3-9.4 22.5-31.3 16.4-65.6-17.6-83.2-34.9-8.5-8.4-16.2-19.8-22.5-32.1l20.7 0.1c3.6 7.3 8.3 15.3 14.2 23.7 24.5 35.2 37.7 35.7 47.3 31.6 17.7-7.6-4.5-64-17.7-81.7-13.1-17.7-31.3-29-42.2-22.3-13.1 8.1-13 25.3-1.5 48.6l-20.7-0.2v0M226.7 151.1c0-14-0.8-15.5-16.5-15v-8.4c9.1 0.6 16.5 1 22.1 1 5.8 0 13-0.4 22.3-1v8.4c-15.7-0.6-16.5 1-16.5 15V231l87-102.8 16.1-2.5 1 1v4.9l-0.4 14.6v92.1c0 14 0.8 15.5 16.5 15v8.3c-9.7-0.6-16.9-1-22.7-1-5.6 0-13 0.4-21.8 1v-8.3c15.7 0.6 16.5-1 16.5-15v-73.6l-4.5 4.9-30.9 35.6-45.3 56.2c-8.5-0.2-15-0.6-20.2-0.6-5.1 0-11.7 0.4-19.4 1v-8.3c15.7 0.6 16.5-1 16.5-15v-87M412.7 151.1c-0.2-14-1-15.5-16.5-15.2v-8.2c12.8 0.6 22.7 1 30.3 1 7.6 0 17.3-0.4 30.1-1v8.4c-15.7-0.6-16.5 1-16.5 15v87c0 14 0.8 15.5 16.5 15v8.3c-12.8-0.6-22.5-1-30.1-1-7.6 0-17.5 0.4-30.3 1v-8.2c15.5 0.4 16.3-1.2 16.5-15.2v-87M543.4 235.7c-1.7 4.3-4.5 9.3-3.7 14 0.6 3.5 8.2 3.5 15 3.5v8.3c-13.4-0.6-23.3-1-31.3-1-8 0-18.1 0.4-31.5 1v-8.3c6 0 15.3-3.1 20-13.8l46.4-111.1h14.8c15.9 38.7 31.9 77.1 48.2 116 3.9 8.6 5.8 8.9 15 8.9v8.3c-9.5-0.6-16.7-1-22.3-1-5.6 0-13 0.4-22.5 1v-8.3c7.8 0 16.1-1.4 16.1-5.1 0-1.9-1.7-5.8-2.9-10.1l-30.7-77.5-30.5 75.2v0M685.7 147.8c0-8.5-1.9-12.4-10.9-14.4v-5.6c20.4 0.6 35.7 1 48 1 12 0 27.2-0.4 48.9-1l1.9 33.4h-7.6c-1.4-6.8-2.5-15.4-3.9-18.8-5-1.9-17.7-2.3-49.1-2.3v52.5h25.8c3.5 0 9.7-0.4 10.7-4.9 1.2-3.9 0.6-8 1-12h8.2v41.8h-7.8c0-4.5-0.4-8.4-1.4-11.7-0.6-3.5-3.3-3.5-6-3.5h-30.5v41.4c0 2.3 0.6 4.9 1.4 7 5.6 0 30.5 0.2 37.5-0.4 4.3-0.4 8.7-1.2 8.9-4.3 0.4-4.3 0.8-8.7 0.8-13h7.4l1.9 21.4 0.8 7.2c-17.1-0.4-34.2-1-51.3-1-17.3 0-34.4 0.6-51.5 1v-7.4c15.5-1.4 16.3-2.9 16.7-15v-91.3M830.3 151.1c-0.2-14-1-15.5-16.5-15.2v-8.2c12.8 0.6 22.7 1 30.3 1 7.6 0 17.3-0.4 30.1-1v8.4c-15.7-0.6-16.5 1-16.5 15v94.4c0 1.4 0.4 2.9 0.8 4.5 3.7 0.6 7.8 1 11.7 1 15.2 0 26.2-8.2 26.2-24.1 0-18.3-13.2-29.3-31.1-27.8l-1.4-3.5 43.5-67.8c5.8 0.6 11.7 1 17.5 1 6.2 0 12.6-0.4 18.8-1v8.2c-4.9 0.6-10.7 4.7-13.6 8.7l-35.2 53.2c16.1 5.8 28.9 17.3 28.9 35.6 0 8-1 12.2-6.6 18.1-10.1 10.5-25.6 9.9-39.2 9.9-13.8-0.6-23.9-1-32-1-8.2 0-18.5 0.4-32.2 1v-8.2c15.5 0.4 16.3-1.2 16.5-15.2v-87M984.6 168c0-11.1-0.6-22.2-2.9-33 12.4-6.6 26.6-9.5 40.6-9.5 6.4 0 20 1.4 26 3.7 20.8 8 30.9 23.7 30.9 43.1 0 18.7-13 30.7-34.8 34.8l-15.7 2.9c-12.4 2.1-22.7 5.2-22.7 20.4 0 13 11.7 22.7 27.8 22.7 9.1 0 20-3.3 25.8-10.7l0.4-15.5h8.8c0.6 9.3 0.8 18.8 2.7 27.8l-0.8 2.3c-12.4 5.1-24.3 6.8-36.3 6.8-28.2 0-51.3-11.9-51.3-42.9 0-16.7 11.5-30.7 34.6-34.8l19-3.3c13.2-2.3 18.1-12 18.1-20.4 0-17.7-14-26.4-30.5-26.4-10.1 0-25.2 6-31.3 15l-0.6 17.1h-7.8v0M1138 151.1c-0.2-14-1-15.5-16.5-15.2v-8.2c12.8 0.6 22.7 1 30.3 1 7.6 0 17.3-0.4 30.1-1v8.4c-15.7-0.6-16.5 1-16.5 15v87c0 14 0.8 15.5 16.5 15v8.3c-12.8-0.6-22.5-1-30.1-1-7.6 0-17.5 0.4-30.3 1v-8.2c15.5 0.4 16.3-1.2 16.5-15.2v-87M1292.2 248.5h27.4c10.7-0.2 8.8-1.4 10.1-11.1 0.4-2.7 0.4-5.4 0.4-8.2h7.6c1 11.7 1.9 23.5 2.5 32.3-26.6-0.6-45.8-1-61.2-1-15.3 0-35 0.4-60.8 1-0.2-10.3 1-22.7 0.6-32.2h7.8c0.4 4.9 0.6 9.7 1 13 2.3 4.3 4.1 5.6 8.7 6.2h28.6v-97.3c-0.2-14-1-15.5-16.5-15.2v-8.2c12.8 0.6 22.7 1 30.3 1 7.6 0 17.3-0.4 30.1-1v8.4c-15.7-0.6-16.5 1-16.5 15v97.3M54.3 265c0 17.3 1 19.2 20.4 18.5v10.3c-15.9-0.7-27.9-1.2-37.3-1.2-9.4 0-21.6 0.5-37.5 1.2v-10.1c19.2 0.5 20.2-1.4 20.4-18.8v-92.8c0-27.2 23.3-46.7 68.8-46.7 18.3 0 34.6 3.1 49.1 15.4 15.1 12.8 17.8 30.3 17.8 49.1v75.1c0.2 17.3 1.2 19.2 20.4 18.8v10.1c-13.5-0.7-22.1-1.2-29.1-1.2-7 0-15.6 0.5-26 1.2v-10.1c19.2 0.5 20.2-1.4 20.4-18.8v-62.8c0-12.5 0-29.1-6-39.9-7.5-13.2-24.3-17.1-38.7-17.1-13 0-28.1 3.1-36.3 14.2-7.9 10.8-6.5 28.4-6.5 41.1v64.5M2005.3 190.9c-2.4-3.9-4.3-7.9-6.1-11.6-4.9-9.9-19.5-52.8 6.2-61.5 15.7-5.3 52.9 11.2 69.5 26.8 42.3 39.8 42.1 59.8 44.6 67.9 2.5 8.1 53.6 30.9 57.1 24.8 4.4-7.6-45.4-103.7-54.5-121.9-0.2-0.5 25.6 6.4 27.3 10.1 12.7 27.8 59.7 109.5 103.2 101.2 6-1.1 24.3 11.2 23 7.3-3.3-9.6-44.1-96.8-57.4-120.1-3-5.3 26.9 9.3 30.4 16.2 12.6 25.3 27.8 35.9 37.2 35.9 10.6 0 54.6-55.9 102.2-55.9 35.6 0 53.6 23.8 51.3 24.8 0 0-18.2-13.9-42.2-10.6-28.8 3.9-68.5 45.5-77.9 54.9-3.8 3.8 63.5 19.7 77.7 52.4 8.5 19.5-11.1 25-11.1 25-7.8-40.2-46-54.4-78.4-71.3 0 0-13.5 4.8-28.3-5.1-6.1-4.1 54.3 133.4 63.7 152.3 0.5 1-31.4-10.6-32.4-12.1-2.3-3.5 1.3-1.5 0.3-5.6-3.2-12.6-28.6-65.5-28.6-65.5-19.4 0-77.6-26.1-85.2-30.6-7.6-4.6 11.4 27.1 4.1 31.9-7.4 4.8-15.4 3.5-32.6-1-17.2-4.6-38.5-18.1-44.5-20.7-4.5-2 2.5 21.5-19.7 28.3-32.6 10-76.4-30.2-98.4-65.9l25.3-0.2c16.5 28.4 30.4 52.5 50.7 52.5 16.7 0 19.7-32-9.4-81.8-8.7-14.8-31.1-29.7-40.9-26.1-11.5 4.3-19.5 22.4-0.4 55.4h-25.3v0" fill="#555"/><path d="m1885.7 352.1c0.5-0.5 19.7 9.6 26.8 1.5 8.3-9.4-2.5-45.5-24.8-91.6-21.6-44.6-41-81.4-45.5-95.6-4.6-14.4 5.3-9.1 15.7-3.5 20.7 11.1 108.2 87.5 119.4 93.6 6.3 3.4-52.7-67.1-102.2-121.4C1818.4 72.8 1761.9 12.9 1690 11.1 1607 9.1 1575.1 80.7 1575.1 81.4 1575.1 81.9 1585.7 0 1706.6 0c105.2 0 233.2 169.5 264.1 206.9 52.4 63.6 97.9 119.7 130 139.6 32.1 19.9 67.3 7.6 67.3 7.6-50.1 32.4-112.3-14.7-162.4-61.2-41.6-38.6-113.2-89.7-117.9-93.6-6.1-5.1 76.4 145.2 52.6 166.9-8.8 8.1-58.6-10.2-54.6-14.2v0" fill="#555"/></g></g></svg>